<svg version="1.1" id="Layer_1" xmlns="http://www.w3.org/2000/svg" xmlns:xlink="http://www.w3.org/1999/xlink" x="0px" y="0px"
	 width="100%" viewBox="0 0 512 512" enable-background="new 0 0 512 512" xml:space="preserve">
<path fill="#C4E2F2" opacity="1.000000" stroke="none" 
	d="
M1.000001,317.000000 
	C1.000000,222.645767 1.000000,128.291550 1.267792,33.238831 
	C7.210230,14.673412 25.464745,1.659349 45.487873,1.731842 
	C185.745193,2.239640 326.005280,2.044653 466.264252,1.897430 
	C475.177521,1.888074 483.442383,3.155035 490.959534,7.998164 
	C503.549408,16.109470 511.868774,27.218399 511.902802,42.578968 
	C512.099854,131.531479 512.001038,220.484665 511.988098,309.437622 
	C511.987762,311.765045 511.824921,314.092438 511.288544,316.474854 
	C495.890442,316.549530 480.941650,316.569214 465.862335,316.164429 
	C463.630035,296.258759 461.528259,276.777588 459.404572,257.093201 
	C445.738312,257.093201 432.444061,257.093201 419.107422,256.622986 
	C419.002289,244.988815 420.049286,233.686279 418.675842,222.685944 
	C413.894287,184.389160 378.829926,161.316559 344.522858,166.810776 
	C315.485565,171.461075 291.192413,198.263977 290.970398,227.676666 
	C290.896210,237.506119 290.829254,247.335648 290.310059,257.094330 
	C276.647583,257.054047 263.434113,257.084564 249.743378,257.077148 
	C247.109909,257.022766 244.925812,257.221527 242.803055,256.946564 
	C237.870224,256.307526 235.978806,258.270355 235.925415,263.265289 
	C235.870926,268.364105 234.891418,273.448517 234.412537,278.548218 
	C233.238007,291.056183 232.118530,303.569336 230.712830,316.159088 
	C229.948471,316.445160 229.448166,316.652527 228.490097,316.766663 
	C153.503036,316.657959 78.973732,316.640839 4.444436,316.642578 
	C3.296288,316.642578 2.148146,316.875671 1.000001,317.000000 
M132.105789,99.044075 
	C121.392380,99.125824 110.678963,99.207565 99.040588,99.167099 
	C89.379578,99.152824 79.718559,99.130226 70.057549,99.126167 
	C54.167751,99.119499 51.891670,101.407990 51.893837,117.346596 
	C51.895458,129.282700 52.618553,130.329712 63.683643,134.356216 
	C63.796814,134.802338 63.968258,135.274658 64.032639,135.761124 
	C67.699760,163.468781 71.457596,191.164993 74.976395,218.891525 
	C76.825829,233.464233 85.925423,242.069122 100.552681,242.221161 
	C109.374611,242.312866 118.199638,242.107681 127.837845,242.228912 
	C153.150635,242.387451 178.474976,243.062225 203.771545,242.495804 
	C217.257965,242.193832 226.275436,233.768219 227.886002,222.072678 
	C230.963821,199.722198 233.714447,177.326675 236.782333,154.088745 
	C237.605743,147.415665 238.429153,140.742584 240.007095,134.042938 
	C248.595200,132.249054 251.529114,128.808945 251.806519,120.113235 
	C251.880707,117.787613 251.853302,115.457100 251.814407,113.129807 
	C251.649796,103.280663 247.285782,99.024048 237.329788,99.005623 
	C214.716141,98.963783 192.102463,98.933052 169.332672,97.987328 
	C169.316742,88.499634 169.371536,79.011162 169.266678,69.524445 
	C169.140076,58.068283 161.845306,50.119473 151.610153,50.107361 
	C141.342941,50.095211 134.007996,58.096874 133.918060,69.495377 
	C133.840591,79.314583 133.839996,89.134384 133.408752,99.002274 
	C133.408752,99.002274 133.041519,99.162926 132.105789,99.044075 
M387.500061,110.237518 
	C385.334076,110.237511 383.167908,110.219856 381.002136,110.240921 
	C375.342041,110.295975 369.656067,110.057205 364.030151,110.528893 
	C359.301575,110.925339 356.699127,114.310585 356.902344,118.585930 
	C357.100952,122.765121 360.147766,125.638901 364.825745,125.984718 
	C366.151917,126.082756 367.490356,126.021919 368.823151,126.021973 
	C402.146088,126.023308 435.469055,126.024292 468.791992,126.022194 
	C477.156494,126.021667 480.903351,123.633087 480.980133,118.269470 
	C481.058624,112.787247 477.099426,110.239235 468.475128,110.238426 
	C441.816772,110.235924 415.158417,110.237587 387.500061,110.237518 
M401.499878,89.366524 
	C423.980682,89.366478 446.461456,89.371964 468.942261,89.356049 
	C470.769775,89.354752 472.620300,89.362946 474.420044,89.096222 
	C478.713043,88.459984 480.911407,85.601753 480.886475,81.518669 
	C480.861298,77.395203 478.482880,74.666054 474.252960,74.039421 
	C472.455414,73.773125 470.598358,73.868019 468.768341,73.867447 
	C440.958740,73.858704 413.149170,73.859734 385.339569,73.862511 
	C378.512177,73.863190 371.681671,73.755394 364.858429,73.928093 
	C359.949829,74.052330 356.857025,77.261269 356.901794,81.690735 
	C356.948151,86.276787 360.067688,89.243217 365.530334,89.308014 
	C377.185425,89.446266 388.843170,89.360649 401.499878,89.366524 
M319.475708,110.231415 
	C312.007416,110.248444 304.529755,110.042999 297.074066,110.358040 
	C291.800659,110.580872 288.758667,114.005249 288.954498,118.543694 
	C289.141968,122.888885 292.287567,125.907959 297.301605,125.969673 
	C308.087982,126.102448 318.878815,126.113342 329.664520,125.953346 
	C334.535614,125.881096 337.798096,122.584732 337.881683,118.311462 
	C337.959076,114.355827 334.959656,110.967628 330.404755,110.451553 
	C327.124695,110.079918 323.779388,110.284157 319.475708,110.231415 
M307.509796,73.857285 
	C304.179260,73.861588 300.846100,73.783524 297.518799,73.889000 
	C292.185608,74.058060 288.952148,77.024368 288.948578,81.591698 
	C288.945160,86.012962 291.898010,89.198799 296.989349,89.303551 
	C307.808075,89.526115 318.636841,89.516449 329.456512,89.323181 
	C334.681366,89.229851 338.019623,85.760948 337.871674,81.371330 
	C337.721436,76.914833 334.357605,73.970932 328.989197,73.888329 
	C322.163116,73.783310 315.334259,73.859291 307.509796,73.857285 
z"/>
<path fill="#FF491F" opacity="1.000000" stroke="none" 
	d="
M419.149811,257.093201 
	C432.444061,257.093201 445.738312,257.093201 459.404572,257.093201 
	C461.528259,276.777588 463.630035,296.258759 465.822449,316.572144 
	C467.644745,333.597107 469.376434,349.789886 471.075104,366.403290 
	C472.361603,377.834930 473.811035,388.832428 474.964447,399.860840 
	C476.140564,411.106964 476.898468,422.396881 478.074310,433.643036 
	C479.229034,444.686920 480.804443,455.686768 481.964081,466.730194 
	C483.127563,477.810608 483.931274,488.928467 485.045776,500.014496 
	C485.483093,504.364532 486.336243,508.672729 487.000000,513.000000 
	C443.312439,513.000000 399.624878,513.000000 355.494080,512.557800 
	C352.928131,491.446381 350.851898,470.772278 348.671173,450.109192 
	C345.810242,423.000519 342.879059,395.899200 339.952454,368.797485 
	C338.923950,359.273010 337.819855,349.756683 336.712097,339.896667 
	C332.850067,339.896667 329.544006,339.904541 326.238037,339.895447 
	C298.103546,339.817993 269.969086,339.737427 241.856110,339.240631 
	C242.551773,331.437042 243.225906,324.050568 243.993378,316.278931 
	C246.131348,296.300873 248.175980,276.708008 250.220612,257.115112 
	C263.434113,257.084564 276.647583,257.054047 290.303650,257.556824 
	C290.747009,265.579071 290.669250,273.069153 290.774200,280.556671 
	C290.854248,286.266296 293.864441,289.738312 298.453644,289.762970 
	C303.036163,289.787598 306.144318,286.284454 306.222900,280.637390 
	C306.331696,272.817108 306.248871,264.994171 306.691467,257.101959 
	C339.119507,256.981201 371.104218,256.930878 403.240204,257.336548 
	C403.437866,265.435516 403.362610,273.081879 403.570709,280.720459 
	C403.725403,286.396973 406.901398,289.835327 411.441620,289.763184 
	C416.023224,289.690369 419.027405,286.167786 419.092133,280.522827 
	C419.181671,272.713776 419.136993,264.903137 419.149811,257.093201 
z"/>
<path fill="#FEE04D" opacity="1.000000" stroke="none" 
	d="
M241.834595,339.657776 
	C269.969086,339.737427 298.103546,339.817993 326.238037,339.895447 
	C329.544006,339.904541 332.850067,339.896667 336.712097,339.896667 
	C337.819855,349.756683 338.923950,359.273010 339.952454,368.797485 
	C342.879059,395.899200 345.810242,423.000519 348.671173,450.109192 
	C350.851898,470.772278 352.928131,491.446381 355.025452,512.557800 
	C294.312439,513.000000 233.624878,513.000000 172.622101,512.615967 
	C172.871353,507.562469 173.455490,502.895233 173.996017,498.222931 
	C174.967667,489.823944 175.913132,481.421997 176.995514,472.620422 
	C180.879150,436.847870 184.636826,401.476105 188.561310,365.739868 
	C189.623703,357.018036 190.519302,348.660706 191.484985,339.649445 
	C203.567062,339.649445 215.295334,339.649445 227.480240,339.735779 
	C232.569443,339.767334 237.202026,339.712555 241.834595,339.657776 
M256.187347,429.636780 
	C244.430267,425.057831 238.382126,416.439850 238.200485,403.590912 
	C238.059235,393.599823 238.281754,383.602905 238.083084,373.613739 
	C238.036072,371.249634 237.672577,368.062988 236.159119,366.763092 
	C234.191467,365.073090 230.838547,364.004852 228.246368,364.271088 
	C224.586655,364.646973 222.745346,367.846161 222.724716,371.541138 
	C222.660599,383.029785 222.683243,394.519592 222.769470,406.008240 
	C222.930557,427.470551 240.682983,444.872894 261.318848,446.492310 
	C281.996948,448.115051 303.501740,431.392548 304.947449,410.595459 
	C305.811707,398.162567 305.646667,385.650177 305.702850,373.172424 
	C305.730225,367.082306 302.600952,363.742676 297.675415,363.804352 
	C292.827759,363.865051 290.033722,367.296387 290.002106,373.455231 
	C289.949921,383.614594 290.094482,393.775879 289.959656,403.933716 
	C289.713165,422.506531 275.037140,433.991028 256.187347,429.636780 
z"/>
<path fill="#FFFFFF" opacity="1.000000" stroke="none" 
	d="
M176.869537,473.021271 
	C175.913132,481.421997 174.967667,489.823944 173.996017,498.222931 
	C173.455490,502.895233 172.871353,507.562469 172.153442,512.615967 
	C115.071526,513.000000 58.143055,513.000000 1.000000,513.000000 
	C1.000000,453.979279 1.000000,394.958313 1.358901,335.560089 
	C5.817546,346.398529 12.540442,355.219727 23.339775,361.039490 
	C30.903145,365.115448 38.893997,366.593262 47.135086,366.645691 
	C78.963501,366.848206 110.793983,366.712769 142.623657,366.739807 
	C150.448593,366.746460 158.273376,366.891235 166.053802,367.381897 
	C161.678055,385.658875 157.193420,403.492035 153.158875,421.426392 
	C152.445221,424.598816 151.186218,425.051270 148.564133,425.026917 
	C140.407333,424.951019 132.236542,424.711151 124.095192,425.073792 
	C114.402122,425.505524 106.203247,429.091309 99.567719,436.707336 
	C90.237785,447.415771 90.983856,459.995300 91.068924,473.021271 
	C119.991333,473.021271 148.430435,473.021271 176.869537,473.021271 
z"/>
<path fill="#3D404E" opacity="1.000000" stroke="none" 
	d="
M166.098236,366.972504 
	C158.273376,366.891235 150.448593,366.746460 142.623657,366.739807 
	C110.793983,366.712769 78.963501,366.848206 47.135086,366.645691 
	C38.893997,366.593262 30.903145,365.115448 23.339775,361.039490 
	C12.540442,355.219727 5.817546,346.398529 1.358901,335.091431 
	C1.000000,329.311951 1.000000,323.623932 1.000001,317.467957 
	C2.148146,316.875671 3.296288,316.642578 4.444436,316.642578 
	C78.973732,316.640839 153.503036,316.657959 228.504410,317.233002 
	C228.325531,325.078186 227.674576,332.363831 227.023621,339.649445 
	C215.295334,339.649445 203.567062,339.649445 191.484985,339.649445 
	C190.519302,348.660706 189.623703,357.018036 188.065613,365.712372 
	C180.301483,366.357086 173.199860,366.664795 166.098236,366.972504 
z"/>
<path fill="#FFFFFF" opacity="1.000000" stroke="none" 
	d="
M487.468689,513.000000 
	C486.336243,508.672729 485.483093,504.364532 485.045776,500.014496 
	C483.931274,488.928467 483.127563,477.810608 481.964081,466.730194 
	C480.804443,455.686768 479.229034,444.686920 478.074310,433.643036 
	C476.898468,422.396881 476.140564,411.106964 474.964447,399.860840 
	C473.811035,388.832428 472.361603,377.834930 471.498444,366.374023 
	C473.769745,365.783722 475.653046,365.908997 477.389313,365.462585 
	C500.037720,359.639526 514.449585,340.000641 511.737885,316.419861 
	C511.824921,314.092438 511.987762,311.765045 511.988098,309.437622 
	C512.001038,220.484665 512.099854,131.531479 511.902802,42.578968 
	C511.868774,27.218399 503.549408,16.109470 490.959534,7.998164 
	C483.442383,3.155035 475.177521,1.888074 466.264252,1.897430 
	C326.005280,2.044653 185.745193,2.239640 45.487873,1.731842 
	C25.464745,1.659349 7.210230,14.673412 1.267792,32.770172 
	C1.000000,22.337641 1.000000,11.675282 1.000000,1.009693 
	C171.593430,1.006462 342.186859,1.006462 512.890137,1.006462 
	C512.890137,171.666611 512.890137,342.333313 512.890137,513.000000 
	C504.596893,513.000000 496.267120,513.000000 487.468689,513.000000 
z"/>
<path fill="#2D92BF" opacity="1.000000" stroke="none" 
	d="
M236.600861,154.949844 
	C233.714447,177.326675 230.963821,199.722198 227.886002,222.072678 
	C226.275436,233.768219 217.257965,242.193832 203.771545,242.495804 
	C178.474976,243.062225 153.150635,242.387451 127.185776,241.877167 
	C117.906906,238.960281 112.057625,233.368805 109.587143,224.788666 
	C108.317360,220.378616 108.085266,215.655899 107.528885,211.056976 
	C105.978386,198.240814 104.042076,185.447418 103.151535,172.583206 
	C102.494461,163.091461 110.912132,155.143356 120.413368,155.006439 
	C124.908028,154.941650 129.404633,155.012192 133.992065,155.378021 
	C137.465729,165.845993 143.564011,170.472900 152.952133,170.050491 
	C160.979034,169.689316 166.855576,164.252029 169.625519,155.026733 
	C192.253311,154.989944 214.427078,154.969894 236.600861,154.949844 
z"/>
<path fill="#2081A3" opacity="1.000000" stroke="none" 
	d="
M133.900360,155.021423 
	C129.404633,155.012192 124.908028,154.941650 120.413368,155.006439 
	C110.912132,155.143356 102.494461,163.091461 103.151535,172.583206 
	C104.042076,185.447418 105.978386,198.240814 107.528885,211.056976 
	C108.085266,215.655899 108.317360,220.378616 109.587143,224.788666 
	C112.057625,233.368805 117.906906,238.960281 126.778488,241.780670 
	C118.199638,242.107681 109.374611,242.312866 100.552681,242.221161 
	C85.925423,242.069122 76.825829,233.464233 74.976395,218.891525 
	C71.457596,191.164993 67.699760,163.468781 64.032639,135.761124 
	C63.968258,135.274658 63.796814,134.802338 63.683643,134.356216 
	C52.618553,130.329712 51.895458,129.282700 51.893837,117.346596 
	C51.891670,101.407990 54.167751,99.119499 70.057549,99.126167 
	C79.718559,99.130226 89.379578,99.152824 99.413834,99.536072 
	C94.972397,103.284401 93.311539,107.921455 93.930534,113.688271 
	C94.247353,116.639793 93.954155,119.653549 93.998199,122.638268 
	C94.086937,128.651566 96.438576,132.384460 102.506180,132.917465 
	C112.861870,133.827194 123.312965,133.650925 133.794037,134.398682 
	C133.876175,141.584839 133.888260,148.303131 133.900360,155.021423 
z"/>
<path fill="#FEFEFF" opacity="1.000000" stroke="none" 
	d="
M419.107422,256.622986 
	C419.136993,264.903137 419.181671,272.713776 419.092133,280.522827 
	C419.027405,286.167786 416.023224,289.690369 411.441620,289.763184 
	C406.901398,289.835327 403.725403,286.396973 403.570709,280.720459 
	C403.362610,273.081879 403.437866,265.435516 403.240875,256.874847 
	C403.082184,252.960754 403.114014,249.963608 403.058594,246.968063 
	C402.898804,238.328461 403.762390,229.508102 402.318817,221.085251 
	C398.402557,198.234467 377.298157,180.937012 353.023834,181.844131 
	C333.440613,182.575928 314.250153,196.968933 308.815033,215.578644 
	C304.797180,229.335571 306.343964,243.265884 306.248108,257.172363 
	C306.248871,264.994171 306.331696,272.817108 306.222900,280.637390 
	C306.144318,286.284454 303.036163,289.787598 298.453644,289.762970 
	C293.864441,289.738312 290.854248,286.266296 290.774200,280.556671 
	C290.669250,273.069153 290.747009,265.579071 290.752594,257.627625 
	C290.829254,247.335648 290.896210,237.506119 290.970398,227.676666 
	C291.192413,198.263977 315.485565,171.461075 344.522858,166.810776 
	C378.829926,161.316559 413.894287,184.389160 418.675842,222.685944 
	C420.049286,233.686279 419.002289,244.988815 419.107422,256.622986 
z"/>
<path fill="#3C3F4D" opacity="1.000000" stroke="none" 
	d="
M133.992065,155.378021 
	C133.888260,148.303131 133.876175,141.584839 133.866348,133.940369 
	C133.848175,122.005104 133.827728,110.996025 133.847961,99.728622 
	C133.860901,99.298172 133.833160,99.126053 133.805420,98.953926 
	C133.839996,89.134384 133.840591,79.314583 133.918060,69.495377 
	C134.007996,58.096874 141.342941,50.095211 151.610153,50.107361 
	C161.845306,50.119473 169.140076,58.068283 169.266678,69.524445 
	C169.371536,79.011162 169.316742,88.499634 169.308609,98.901810 
	C169.347565,111.171448 169.410599,122.526596 169.361084,134.349762 
	C169.222870,141.559662 169.197174,148.301575 169.171494,155.043472 
	C166.855576,164.252029 160.979034,169.689316 152.952133,170.050491 
	C143.564011,170.472900 137.465729,165.845993 133.992065,155.378021 
z"/>
<path fill="#2C92BF" opacity="1.000000" stroke="none" 
	d="
M169.473618,133.881744 
	C169.410599,122.526596 169.347565,111.171448 169.386673,99.357056 
	C192.102463,98.933052 214.716141,98.963783 237.329788,99.005623 
	C247.285782,99.024048 251.649796,103.280663 251.814407,113.129807 
	C251.853302,115.457100 251.880707,117.787613 251.806519,120.113235 
	C251.529114,128.808945 248.595200,132.249054 239.142822,134.035645 
	C215.343567,133.979492 192.408600,133.930618 169.473618,133.881744 
z"/>
<path fill="#3F4351" opacity="1.000000" stroke="none" 
	d="
M388.000061,110.237579 
	C415.158417,110.237587 441.816772,110.235924 468.475128,110.238426 
	C477.099426,110.239235 481.058624,112.787247 480.980133,118.269470 
	C480.903351,123.633087 477.156494,126.021667 468.791992,126.022194 
	C435.469055,126.024292 402.146088,126.023308 368.823151,126.021973 
	C367.490356,126.021919 366.151917,126.082756 364.825745,125.984718 
	C360.147766,125.638901 357.100952,122.765121 356.902344,118.585930 
	C356.699127,114.310585 359.301575,110.925339 364.030151,110.528893 
	C369.656067,110.057205 375.342041,110.295975 381.002136,110.240921 
	C383.167908,110.219856 385.334076,110.237511 388.000061,110.237579 
z"/>
<path fill="#3C3F4D" opacity="1.000000" stroke="none" 
	d="
M400.999878,89.366638 
	C388.843170,89.360649 377.185425,89.446266 365.530334,89.308014 
	C360.067688,89.243217 356.948151,86.276787 356.901794,81.690735 
	C356.857025,77.261269 359.949829,74.052330 364.858429,73.928093 
	C371.681671,73.755394 378.512177,73.863190 385.339569,73.862511 
	C413.149170,73.859734 440.958740,73.858704 468.768341,73.867447 
	C470.598358,73.868019 472.455414,73.773125 474.252960,74.039421 
	C478.482880,74.666054 480.861298,77.395203 480.886475,81.518669 
	C480.911407,85.601753 478.713043,88.459984 474.420044,89.096222 
	C472.620300,89.362946 470.769775,89.354752 468.942261,89.356049 
	C446.461456,89.371964 423.980682,89.366478 400.999878,89.366638 
z"/>
<path fill="#3E414F" opacity="1.000000" stroke="none" 
	d="
M511.288544,316.474854 
	C514.449585,340.000641 500.037720,359.639526 477.389313,365.462585 
	C475.653046,365.908997 473.769745,365.783722 471.531464,365.953430 
	C469.376434,349.789886 467.644745,333.597107 465.953003,316.996582 
	C480.941650,316.569214 495.890442,316.549530 511.288544,316.474854 
z"/>
<path fill="#2081A3" opacity="1.000000" stroke="none" 
	d="
M169.361084,134.349762 
	C192.408600,133.930618 215.343567,133.979492 238.765564,134.048935 
	C238.429153,140.742584 237.605743,147.415665 236.691589,154.519287 
	C214.427078,154.969894 192.253311,154.989944 169.625519,155.026733 
	C169.197174,148.301575 169.222870,141.559662 169.361084,134.349762 
z"/>
<path fill="#2D92BE" opacity="1.000000" stroke="none" 
	d="
M133.807281,99.986954 
	C133.827728,110.996025 133.848175,122.005104 133.796295,133.472504 
	C123.312965,133.650925 112.861870,133.827194 102.506180,132.917465 
	C96.438576,132.384460 94.086937,128.651566 93.998199,122.638268 
	C93.954155,119.653549 94.247353,116.639793 93.930534,113.688271 
	C93.311539,107.921455 94.972397,103.284401 99.876312,99.597183 
	C110.678963,99.207565 121.392380,99.125824 132.672943,99.266266 
	C133.392227,99.696648 133.581284,99.862816 133.807281,99.986954 
z"/>
<path fill="#85ACBE" opacity="1.000000" stroke="none" 
	d="
M249.743378,257.077148 
	C248.175980,276.708008 246.131348,296.300873 243.540222,316.294098 
	C238.988113,316.489746 234.982513,316.285065 230.976898,316.080383 
	C232.118530,303.569336 233.238007,291.056183 234.412537,278.548218 
	C234.891418,273.448517 235.870926,268.364105 235.925415,263.265289 
	C235.978806,258.270355 237.870224,256.307526 242.803055,256.946564 
	C244.925812,257.221527 247.109909,257.022766 249.743378,257.077148 
z"/>
<path fill="#FE4D24" opacity="1.000000" stroke="none" 
	d="
M319.969421,110.231468 
	C323.779388,110.284157 327.124695,110.079918 330.404755,110.451553 
	C334.959656,110.967628 337.959076,114.355827 337.881683,118.311462 
	C337.798096,122.584732 334.535614,125.881096 329.664520,125.953346 
	C318.878815,126.113342 308.087982,126.102448 297.301605,125.969673 
	C292.287567,125.907959 289.141968,122.888885 288.954498,118.543694 
	C288.758667,114.005249 291.800659,110.580872 297.074066,110.358040 
	C304.529755,110.042999 312.007416,110.248444 319.969421,110.231468 
z"/>
<path fill="#FE4A21" opacity="1.000000" stroke="none" 
	d="
M308.008179,73.857262 
	C315.334259,73.859291 322.163116,73.783310 328.989197,73.888329 
	C334.357605,73.970932 337.721436,76.914833 337.871674,81.371330 
	C338.019623,85.760948 334.681366,89.229851 329.456512,89.323181 
	C318.636841,89.516449 307.808075,89.526115 296.989349,89.303551 
	C291.898010,89.198799 288.945160,86.012962 288.948578,81.591698 
	C288.952148,77.024368 292.185608,74.058060 297.518799,73.889000 
	C300.846100,73.783524 304.179260,73.861588 308.008179,73.857262 
z"/>
<path fill="#2F303B" opacity="1.000000" stroke="none" 
	d="
M230.712830,316.159088 
	C234.982513,316.285065 238.988113,316.489746 243.446884,316.679260 
	C243.225906,324.050568 242.551773,331.437042 241.856110,339.240631 
	C237.202026,339.712555 232.569443,339.767334 227.480255,339.735779 
	C227.674576,332.363831 228.325531,325.078186 228.962173,317.326233 
	C229.448166,316.652527 229.948471,316.445160 230.712830,316.159088 
z"/>
<path fill="#2081A3" opacity="1.000000" stroke="none" 
	d="
M133.847961,99.728622 
	C133.581284,99.862816 133.392227,99.696648 133.140808,99.325699 
	C133.041519,99.162926 133.408752,99.002274 133.607086,98.978104 
	C133.833160,99.126053 133.860901,99.298172 133.847961,99.728622 
z"/>
<path fill="#C4E2F1" opacity="1.000000" stroke="none" 
	d="
M306.691467,257.101959 
	C306.343964,243.265884 304.797180,229.335571 308.815033,215.578644 
	C314.250153,196.968933 333.440613,182.575928 353.023834,181.844131 
	C377.298157,180.937012 398.402557,198.234467 402.318817,221.085251 
	C403.762390,229.508102 402.898804,238.328461 403.058594,246.968063 
	C403.114014,249.963608 403.082184,252.960754 403.089569,256.418854 
	C371.104218,256.930878 339.119507,256.981201 306.691467,257.101959 
z"/>
<path fill="#2D303B" opacity="1.000000" stroke="none" 
	d="
M166.053802,367.381897 
	C173.199860,366.664795 180.301483,366.357086 187.898804,366.076874 
	C184.636826,401.476105 180.879150,436.847870 176.995514,472.620422 
	C148.430435,473.021271 119.991333,473.021271 91.068924,473.021271 
	C90.983856,459.995300 90.237785,447.415771 99.567719,436.707336 
	C106.203247,429.091309 114.402122,425.505524 124.095192,425.073792 
	C132.236542,424.711151 140.407333,424.951019 148.564133,425.026917 
	C151.186218,425.051270 152.445221,424.598816 153.158875,421.426392 
	C157.193420,403.492035 161.678055,385.658875 166.053802,367.381897 
z"/>
<path fill="#3F414D" opacity="1.000000" stroke="none" 
	d="
M256.572357,429.761230 
	C275.037140,433.991028 289.713165,422.506531 289.959656,403.933716 
	C290.094482,393.775879 289.949921,383.614594 290.002106,373.455231 
	C290.033722,367.296387 292.827759,363.865051 297.675415,363.804352 
	C302.600952,363.742676 305.730225,367.082306 305.702850,373.172424 
	C305.646667,385.650177 305.811707,398.162567 304.947449,410.595459 
	C303.501740,431.392548 281.996948,448.115051 261.318848,446.492310 
	C240.682983,444.872894 222.930557,427.470551 222.769470,406.008240 
	C222.683243,394.519592 222.660599,383.029785 222.724716,371.541138 
	C222.745346,367.846161 224.586655,364.646973 228.246368,364.271088 
	C230.838547,364.004852 234.191467,365.073090 236.159119,366.763092 
	C237.672577,368.062988 238.036072,371.249634 238.083084,373.613739 
	C238.281754,383.602905 238.059235,393.599823 238.200485,403.590912 
	C238.382126,416.439850 244.430267,425.057831 256.572357,429.761230 
z"/>
</svg>